<svg xmlns="http://www.w3.org/2000/svg" style="display: none;">
  <!-- Strategy Icon -->
  <symbol id="icon-strategy" viewBox="0 0 24 24">
    <circle cx="12" cy="12" r="10" fill="none" stroke="currentColor" stroke-width="1.5"/>
    <path d="M12 7v5l3 2" fill="none" stroke="currentColor" stroke-width="1.5" stroke-linecap="round"/>
    <path d="M8 12l-2 2m8-2l2 2" fill="none" stroke="currentColor" stroke-width="1.5" stroke-linecap="round"/>
  </symbol>

  <!-- Content Icon -->
  <symbol id="icon-content" viewBox="0 0 24 24">
    <rect x="3" y="3" width="18" height="18" rx="2" fill="none" stroke="currentColor" stroke-width="1.5"/>
    <path d="M3 9h18M3 15h18" stroke="currentColor" stroke-width="1.5"/>
    <circle cx="8" cy="6" r="1" fill="currentColor"/>
    <circle cx="14" cy="6" r="1" fill="currentColor"/>
  </symbol>

  <!-- Growth Icon -->
  <symbol id="icon-growth" viewBox="0 0 24 24">
    <polyline points="3 17 9 11 13 15 21 7" fill="none" stroke="currentColor" stroke-width="1.5" stroke-linecap="round" stroke-linejoin="round"/>
    <polyline points="21 7 21 3 17 3" fill="none" stroke="currentColor" stroke-width="1.5" stroke-linecap="round" stroke-linejoin="round"/>
  </symbol>

  <!-- Community Icon -->
  <symbol id="icon-community" viewBox="0 0 24 24">
    <circle cx="9" cy="7" r="3" fill="none" stroke="currentColor" stroke-width="1.5"/>
    <circle cx="15" cy="7" r="3" fill="none" stroke="currentColor" stroke-width="1.5"/>
    <path d="M3 21c0-3.314 2.686-6 6-6h6c3.314 0 6 2.686 6 6" fill="none" stroke="currentColor" stroke-width="1.5" stroke-linecap="round"/>
    <path d="M9 11c-2.209 0-4 1.791-4 4v6" fill="none" stroke="currentColor" stroke-width="1.5"/>
  </symbol>

  <!-- Analytics Icon -->
  <symbol id="icon-analytics" viewBox="0 0 24 24">
    <rect x="3" y="3" width="18" height="18" rx="2" fill="none" stroke="currentColor" stroke-width="1.5"/>
    <path d="M7 13v-3m5 6v-6m5 3v-3" stroke="currentColor" stroke-width="1.5" stroke-linecap="round"/>
  </symbol>

  <!-- Engagement Icon -->
  <symbol id="icon-engagement" viewBox="0 0 24 24">
    <path d="M21 15a2 2 0 0 1-2 2H7l-4 4V5a2 2 0 0 1 2-2h14a2 2 0 0 1 2 2z" fill="none" stroke="currentColor" stroke-width="1.5" stroke-linecap="round" stroke-linejoin="round"/>
    <circle cx="9" cy="10" r="1" fill="currentColor"/>
    <circle cx="12" cy="10" r="1" fill="currentColor"/>
    <circle cx="15" cy="10" r="1" fill="currentColor"/>
  </symbol>

  <!-- Conversion Icon -->
  <symbol id="icon-conversion" viewBox="0 0 24 24">
    <path d="M13 2L3 14h9l-1 8 10-12h-9l1-8z" fill="none" stroke="currentColor" stroke-width="1.5" stroke-linecap="round" stroke-linejoin="round"/>
  </symbol>

  <!-- Checkmark Icon -->
  <symbol id="icon-check" viewBox="0 0 24 24">
    <polyline points="20 6 9 17 4 12" fill="none" stroke="currentColor" stroke-width="2" stroke-linecap="round" stroke-linejoin="round"/>
  </symbol>

  <!-- Arrow Right Icon -->
  <symbol id="icon-arrow-right" viewBox="0 0 24 24">
    <path d="M5 12h14M12 5l7 7-7 7" fill="none" stroke="currentColor" stroke-width="2" stroke-linecap="round" stroke-linejoin="round"/>
  </symbol>

  <!-- Star Icon -->
  <symbol id="icon-star" viewBox="0 0 24 24">
    <polygon points="12 2 15.09 10.26 24 10.26 17.55 16.5 19.64 24.76 12 19.52 4.36 24.76 6.45 16.5 0 10.26 8.91 10.26" fill="currentColor"/>
  </symbol>

  <!-- Lock Icon -->
  <symbol id="icon-lock" viewBox="0 0 24 24">
    <rect x="3" y="11" width="18" height="11" rx="2" fill="none" stroke="currentColor" stroke-width="1.5"/>
    <path d="M7 11V7a5 5 0 0 1 10 0v4" fill="none" stroke="currentColor" stroke-width="1.5" stroke-linecap="round"/>
    <circle cx="12" cy="17" r="1" fill="currentColor"/>
  </symbol>

  <!-- Download Icon -->
  <symbol id="icon-download" viewBox="0 0 24 24">
    <path d="M21 15v4a2 2 0 0 1-2 2H5a2 2 0 0 1-2-2v-4" fill="none" stroke="currentColor" stroke-width="1.5" stroke-linecap="round" stroke-linejoin="round"/>
    <polyline points="7 10 12 15 17 10" fill="none" stroke="currentColor" stroke-width="1.5" stroke-linecap="round" stroke-linejoin="round"/>
    <line x1="12" y1="15" x2="12" y2="3" stroke="currentColor" stroke-width="1.5" stroke-linecap="round" stroke-linejoin="round"/>
  </symbol>
</svg>
